<svg width="92" height="36" viewBox="0 0 92 36" fill="none" xmlns="http://www.w3.org/2000/svg">
<path d="M40.116 14.5413C40.4685 14.1889 40.6665 13.711 40.6666 13.2126C40.6666 12.7142 40.4687 12.2361 40.1163 11.8837C39.7639 11.5312 39.286 11.3331 38.7876 11.3331C38.2892 11.333 37.8111 11.5309 37.4587 11.8833L28.5613 20.7827C28.4065 20.937 28.2921 21.127 28.228 21.336L27.3473 24.2373C27.3301 24.295 27.3288 24.3562 27.3436 24.4146C27.3583 24.4729 27.3886 24.5262 27.4312 24.5687C27.4738 24.6112 27.5271 24.6414 27.5854 24.656C27.6438 24.6707 27.705 24.6693 27.7627 24.652L30.6647 23.772C30.8734 23.7085 31.0634 23.5947 31.218 23.4407L40.116 14.5413Z" stroke="#90A1B9" stroke-width="1.33333" stroke-linecap="round" stroke-linejoin="round"/>
<path d="M36 13.3333L38.6667 16" stroke="#90A1B9" stroke-width="1.33333" stroke-linecap="round" stroke-linejoin="round"/>
<path d="M72.6667 17.3333V21.3333" stroke="#90A1B9" stroke-width="1.33333" stroke-linecap="round" stroke-linejoin="round"/>
<path d="M75.3333 17.3333V21.3333" stroke="#90A1B9" stroke-width="1.33333" stroke-linecap="round" stroke-linejoin="round"/>
<path d="M78.6666 14V23.3333C78.6666 23.687 78.5262 24.0261 78.2761 24.2761C78.0261 24.5262 77.6869 24.6667 77.3333 24.6667H70.6666C70.313 24.6667 69.9739 24.5262 69.7238 24.2761C69.4738 24.0261 69.3333 23.687 69.3333 23.3333V14" stroke="#90A1B9" stroke-width="1.33333" stroke-linecap="round" stroke-linejoin="round"/>
<path d="M68 14H80" stroke="#90A1B9" stroke-width="1.33333" stroke-linecap="round" stroke-linejoin="round"/>
<path d="M71.3333 14V12.6667C71.3333 12.313 71.4738 11.9739 71.7238 11.7239C71.9739 11.4738 72.313 11.3333 72.6666 11.3333H75.3333C75.6869 11.3333 76.0261 11.4738 76.2761 11.7239C76.5262 11.9739 76.6666 12.313 76.6666 12.6667V14" stroke="#90A1B9" stroke-width="1.33333" stroke-linecap="round" stroke-linejoin="round"/>
</svg>
