<svg width="20" height="28" viewBox="0 0 20 28" fill="none" xmlns="http://www.w3.org/2000/svg">
<path d="M15 14.8203H10.8203V19C10.8203 19.4688 10.4688 19.8203 10 19.8203C9.53125 19.8203 9.17969 19.4688 9.17969 19V14.8203H5C4.53125 14.8203 4.17969 14.4688 4.17969 14C4.17969 13.5312 4.53125 13.1797 5 13.1797H9.17969V9C9.17969 8.53125 9.53125 8.17969 10 8.17969C10.4688 8.17969 10.8203 8.53125 10.8203 9V13.1797H15C15.4688 13.1797 15.8203 13.5312 15.8203 14C15.8203 14.4688 15.4688 14.8203 15 14.8203Z" fill="white"/>
</svg>
